<svg version="1.1" xmlns="http://www.w3.org/2000/svg" width="66" height="32" viewBox="0 0 66 32">
<title>Joe Tower</title>
<path d="M53.033 2.418c0.958-0.679 2.421-0.659 3.515-1.036 1.338-0.462 2.781-1.246 4.211-1.375 0.934-0.082 2.608 0.53 2.377 1.759-0.204 1.1-2.479 1.178-3.318 1.532-2.917 1.233-5.549 3.056-8.269 4.663-0.608 0.34-4.537 2.265-2.771 2.965 0.696 0.275 1.745-0.679 2.418-0.784 1.589-0.228 1.389 0.89 2.357 1.62 0.835 0.628 2.061-0.129 2.737 0.998s-0.268 1.562-1.27 1.752c-1.056 0.197-4.371-0.126-5.063 0.842-0.761 1.060 3.98 4.275 4.894 5.036 2.88 2.377 3.009 2.853 5.756 5.386 0.37 0.34 3.963 3.348 3.396 3.715-0.53-0.659-1.127-0.499-1.073-1.168-0.18 0.034-0.679 0-0.547 0.34-0.117-0.134-0.209-0.292-0.269-0.466l-0.003-0.010c-0.44-0.086-0.831-0.22-1.196-0.4l0.028 0.012c-0.805-0.418-1.47-1.185-2.167-1.759-1.301-1.063-2.635-2.092-3.943-3.145-2.652-2.139-3.005-2.18-5.189-4.819-0.883-1.066-1.338-2.021-2.853-1.664-0.951 0.224-1.919 0.805-2.781 1.263-0.805 0.424-1.963 1.433-2.937 1.331-1.508-0.153-0.401-1.498-1.144-1.919s-1.895 0.778-2.435 1.155c-1.223 0.849-2.489 1.627-3.759 2.404-3.321 2.038-6.659 4.045-9.998 6.052q-2.377 1.433-4.754 2.853c-1.148 0.679-2.306 1.762-3.545 2.252s-1.929 0.058-2.319-1.192c-0.082-0.251-0.425-2.258 0.075-1.698 0.248-0.299 0.34-0.832 0.615-1.185 0.381-0.474 0.783-0.897 1.216-1.285l0.010-0.009c0.7-0.659 1.28-1.396 1.946-2.038 0.214-0.211 0.645-0.486 1.073-0.829 0.287-0.065 0.54-0.158 0.775-0.28l-0.018 0.008c0.289-0.228 0.448-0.937 0.244-0.57-0.031-0.173 2.119-1.854 2.398-2.092 0.706-0.608 1.599-0.907 2.313-1.501 0.621-0.52 1.090-1.117 1.759-1.596 1.749-1.243 3.559-2.411 5.321-3.637 0.691-0.541 1.467-1.068 2.279-1.54l0.098-0.053c0.102-0.051 1.453-0.418 1.443-0.408-0.095-0.679 1.304-1.138 2.055-1.569 0.961-0.557 1.919-1.114 2.887-1.661 1.936-1.097 3.892-2.163 5.909-3.104 0.883-0.46 2.002-0.96 3.15-1.404l0.246-0.084c0.978-0.34 3.909-0.876 4.455-1.667-0.183-0.139-0.306-0.136-0.333 0.007zM50.723 5.427c-1.195-0.312-2.917 0.954-3.936 1.443-2.146 1.019-4.309 1.966-6.405 3.104-5.008 2.742-9.272 5.516-13.311 8.572l0.268-0.194c-0.951 0.713-11.509 9.481-10.986 9.977 0.445 0.424 2.819-1.613 3.216-1.861 1.739-1.083 3.535-1.987 5.253-3.121 0.757-0.499 1.841-0.822 2.489-1.436 0.815-0.767 0.36-1.053 0.34-2.038-0.027-2.255 3.019-2.377 4.71-3.022 1.246-0.446 2.267-0.891 3.254-1.392l-0.161 0.074c0.954-0.499 0.703-0.795 1.175-1.542 0.947-1.501 3.651-2.136 5.182-2.822 1.963-0.91 3.633-1.872 5.209-2.962l-0.115 0.075c0.649-0.428 1.318-0.822 1.976-1.236 0.499-0.316 1.121-0.679 1.039-0.829 0.286-0.252 0.548-0.51 0.794-0.783l0.007-0.008zM31.183 14.908c0.516 0 0.2-0.425 0.231-0.499 0.075-0.183-0.937 0.486-0.231 0.499zM59.434 25.178l-0.217-0.241c-0.679 0.041 0.234 0.927 0.217 0.241zM34.009 12.803c0.023-0.051 0.036-0.111 0.036-0.174 0-0.147-0.073-0.277-0.184-0.355l-0.001-0.001c-0.17 0.003-0.156 0.53 0.149 0.53zM18.238 27.453c-0.16 0.183-0.085 0.662 0.098 0.448 0.029-0.049 0.046-0.108 0.046-0.17 0-0.114-0.057-0.216-0.143-0.277l-0.001-0.001zM57.311 22.916c0.013 0.101 0.069 0.187 0.148 0.24l0.001 0.001c0.533-0.007-0.153-0.73-0.149-0.241zM33.058 13.462l-0.051-0.34c-0.19 0.275-0.115 0.448 0.224 0.523zM32.379 13.017c-0.065 0.255 0.469 0.282 0.391-0.095-0.079 0.065-0.181 0.104-0.292 0.104-0.031 0-0.062-0.003-0.092-0.009l0.003 0.001zM54.815 1.977c-0.052-0.026-0.113-0.041-0.178-0.041-0.145 0-0.273 0.077-0.344 0.192l-0.001 0.002c0.228 0.092 0.367-0.044 0.533-0.153zM33.268 13.323c0.040 0.042 0.097 0.069 0.16 0.069 0.074 0 0.139-0.036 0.179-0.092l0-0.001c-0.078-0.177-0.197-0.17-0.329 0.024zM31.37 13.818l0.187 0.2c0.343-0.153-0.109-0.221-0.177-0.2zM27.105 23.286c0 0-0.217-0.163-0.234-0.122-0.112 0.262 0.115 0.211 0.244 0.122zM35.724 18.827c-0.095-0.126-0.173-0.115-0.234 0.034 0.095 0.126 0.173 0.115 0.245-0.034zM35.007 11.815c-0.037 0.16 0 0.245 0.153 0.251 0.112-0.126 0.061-0.211-0.143-0.251zM36.213 11.075c0.231-0.048 0.268-0.136 0.115-0.272zM32.287 13.937c-0.037 0.166 0.024 0.228 0.177 0.18 0.003-0.122-0.048-0.18-0.177-0.18zM32.627 13.89c0.16-0.221-0.129-0.16 0.014 0.014zM44.19 14.318c-0.115 0.197 0.163 0.197 0.014 0.014zM62.222 28.047c0.065-0.088 0.075-0.143 0-0.211-0.051 0.078-0.037 0.132 0.014 0.224zM14.679 27.144c-0.105-0.017-0.024 0.268 0.020 0.014zM61.332 27.86c0.085 0.078 0.228-0.268 0 0zM33.35 12.918c0.058-0.088-0.241-0.16 0.003 0zM31.706 13.537c0.081-0.143-0.098-0.098 0.003-0.007zM30.487 14.729c-0.098-0.071-0.095 0.075 0.003-0.007zM48.621 14.311c-0.075 0.088 0.071 0.136 0.003-0.007zM52.503 6.076c-0.17-0.034-0.041 0.095 0 0zM15.983 25.585c-0.068 0.054 0.048 0.098 0 0zM61.217 27.623c-0.044-0.085-0.109 0.044 0-0.014zM53.705 2.354c0.075-0.071-0.061-0.112 0-0.014zM32.358 13.357c-0.048-0.068-0.061 0.034 0-0.014zM59.437 26.227c-0.034-0.065-0.061 0 0-0.014zM30.12 14.796c0.010 0.031 0.048-0.037 0-0.014zM39.378 9.506c-0.020-0.068-0.041 0.017 0-0.014zM36.59 11.221c-0.024-0.024-0.048 0.044 0 0zM30.715 14.277c0.054-0.027-0.034-0.044 0 0zM30.83 14.847c-0.014-0.041-0.031 0.007 0-0.010z"></path>
<path d="M12.091 5.787c1.593-2.245 16.664-8.629 16.939-3.926 0.119 2.038-2.887 4.112-4.18 5.355-1.36 1.339-2.799 2.611-4.304 3.804l-0.111 0.085c-1.097 0.839-2.914 1.633-3.443 3.016 1.586 0.278 3.304-1.939 4.961-2.038 1.182-0.061 1.97 0.958 3.056 0.893 0.475-0.031 1.824-0.91 1.165 0.255 0.344-0.074 0.645-0.227 0.892-0.44l-0.003 0.002c0.424 0.265-0.56 1.382-0.737 1.569-0.637 0.692-1.547 1.124-2.559 1.124-0.007 0-0.013-0-0.020-0h0.001c-1.195 0.048-2.245-0.316-3.396 0.122-1.426 0.537-2.238 1.178-3.736 1.236-1.114 0.041-1.997 0.679-2.985 1.189-1.168 0.601-2.418 1.019-3.511 1.776-2.157 1.487-4.045 3.017-5.807 4.678l0.024-0.022c-0.713 0.679-2.459 2.679-3.617 2.038-2.038-1.148 0.788-3.871 1.732-4.52 2.071-1.43 4.333-2.516 6.357-4.038 1.070-0.801 2.156-1.623 3.155-2.51 0.914-0.812 1.667-1.358 0.2-1.518-1.28-0.149-2.757 0.102-3.715-0.975-0.774-0.866-0.971-2.554-0.557-3.627 0.18-0.472 3.586-4.102 4.197-3.528zM21.631 6.979c-0.109-0.122 4.802-4.649 5.128-5.372-3.087 0-6.113 1.752-8.789 3.094-2.557 1.28-6.53 2.999-8.069 5.579-0.754 1.267 0.132 1.206 1.297 1.287 1.358 0.098 2.819 0.34 4.187 0.132 1.491-0.228 2.323-1.117 3.372-2.126 0.771-0.751 1.824-2.323 2.88-2.608zM18.119 10.392c-0.231 0.886 1.297-0.014 0.007-0.014zM22.992 6.527c0-0.475-0.421 0.027-0.424 0.027s0.435 0.425 0.431-0.041zM26.015 1.467c0.065 0.008 0.139 0.013 0.215 0.013 0.283 0 0.55-0.068 0.787-0.188l-0.010 0.005c-0.079-0.015-0.17-0.024-0.263-0.024-0.268 0-0.52 0.072-0.736 0.197l0.007-0.004zM1.673 23.609c-0.037-0.587-0.533 0.020-0.268 0.112zM14.194 14.745c-0.2-0.082-0.289-0.020-0.265 0.187 0.007 0.001 0.014 0.001 0.022 0.001 0.114 0 0.209-0.080 0.232-0.186l0-0.002zM18.788 2.632c-0.224 0.19-0.065 0.34 0.183 0.244zM25.92 13.778c0.18 0.18 0.289 0.166 0.34-0.034zM22.524 14.613c-0.119 0.115-0.119 0.194 0 0.231 0.095-0.058 0.095-0.136 0.014-0.228zM25.92 13.39c0.085 0.183 0.112 0.163 0.265 0.048zM18.313 14.905c0-0.095-0.041-0.146-0.139-0.156-0.017 0.126 0.031 0.16 0.153 0.156zM9.714 19.143c-0.289 0.197 0.282 0.146 0 0zM15.131 4.255c0.105 0.153 0.275-0.292-0.003 0zM12.363 6.099c0.146-0.173-0.051-0.149-0.003 0zM7.986 9.665c-0.146-0.071-0.119 0.126-0.003 0zM9.915 7.594c0.098 0.058 0.139-0.248-0.003 0zM20.816 7.848c-0.088-0.054-0.2 0.333-0.003 0zM20.439 8.273c0.088 0.031 0.071-0.19-0.003 0zM9.46 7.994c-0.010-0.048-0.051 0.027-0.003 0zM9.653 7.994c-0.037-0.041-0.034 0.048-0.003 0zM16.958 4.371c0.003-0.075-0.044 0.003-0.003 0zM15.053 4.116c-0.065 0.051 0.031 0.058-0.003 0zM25.95 14.644c-0.010-0.051-0.044 0.020-0.003-0.003zM15.623 15.723c-0.014-0.048-0.048 0.014-0.003-0.003z"></path>
<path d="M65.614 30.577c-0.181-0.241-0.443-0.413-0.746-0.474l-0.008-0.001c-0.132-0.244 1.019 0.075 0.754 0.475z"></path>
<path d="M18.798 22.974c-0.049 0.132-0.173 0.225-0.32 0.225-0.007 0-0.014-0-0.021-0.001l0.001 0c0-0.119 0.255-0.35 0.34-0.224z"></path>
<path d="M52.904 2.581c-0.173-0.065-0.177-0.129 0-0.19 0.278-0.020 0 0.075 0 0.19z"></path>
<path d="M64.769 29.691c-0.177 0.085-0.156-0.163 0 0z"></path>
<path d="M66.087 30.856c-0.085 0.098-0.166-0.065 0 0z"></path>
<path d="M64.317 29.29c0.071 0.095-0.048 0.119 0 0z"></path>
<path d="M64.487 29.399c0.058 0.122-0.024 0.058 0 0z"></path>
<path d="M48.027 4.286c-0.034 0.061-0.061-0.014 0 0z"></path>
</svg>
